# xmcd
#
# Track frame offsets: 
#        150
#        25947
#        45200
#        67245
#        89308
#        115076
#        141962
#        161735
#        185330
#        209301
#        241859
#        261855
#        282040
#        304104
#
# Disc length: 4282 seconds
#
# Revision: 0
# Processed by: cddbd v1.5.2PL0 Copyright (c) Steve Scherf et al.
# Submitted via: ExactAudioCopyFreeDBPlugin 1.0
#
DISCID=c010b80e
DTITLE=Various Artist - Chong xa
DYEAR=1900
DGENRE=
TTITLE0=Cam Ly - Chong xa
TTITLE1=1088 - Bai ca tang em
TTITLE2=Lam Truong_Cam Ly - Xin mot lan thoi
TTITLE3=Minh Tuyet - Neu phoi pha ngay mai
TTITLE4=Minh Thuan - Dong song mua dong
TTITLE5=Dam Vinh Hung - Tinh oi xin ngu yen
TTITLE6=MInh Tuyet - Va em con mai yeu anh
TTITLE7=Cam Ly - Lang le goi ten
TTITLE8=Thanh Thanh - Hat cho nguoi tinh nho
TTITLE9=Phuong Thanh - Ai se yeu em
TTITLE10=Minh Tuyet - Tuong da phoi pha
TTITLE11=Van Truong - Chan tinh
TTITLE12=Minh Tuyet - Tro lai pho cu
TTITLE13=Van Truong - Buoc chan buon
EXTD=
EXTT0=
EXTT1=
EXTT2=
EXTT3=
EXTT4=
EXTT5=
EXTT6=
EXTT7=
EXTT8=
EXTT9=
EXTT10=
EXTT11=
EXTT12=
EXTT13=
PLAYORDER=
